<?xml version="1.0" encoding="UTF-8" standalone="no"?>
<svg
   sodipodi:docname="rippler.svg"
   inkscape:version="1.3 (0e150ed6c4, 2023-07-21)"
   id="svg1266"
   version="1.1"
   viewBox="0 0 210 297"
   height="1122.5197"
   width="793.70081"
   xml:space="preserve"
   xmlns:inkscape="http://www.inkscape.org/namespaces/inkscape"
   xmlns:sodipodi="http://sodipodi.sourceforge.net/DTD/sodipodi-0.dtd"
   xmlns="http://www.w3.org/2000/svg"
   xmlns:svg="http://www.w3.org/2000/svg"
   xmlns:rdf="http://www.w3.org/1999/02/22-rdf-syntax-ns#"
   xmlns:cc="http://creativecommons.org/ns#"
   xmlns:dc="http://purl.org/dc/elements/1.1/"><defs
     id="defs1260" /><sodipodi:namedview
     inkscape:window-maximized="1"
     inkscape:window-y="-8"
     inkscape:window-x="-8"
     inkscape:window-height="1057"
     inkscape:window-width="1920"
     inkscape:guide-bbox="true"
     showguides="false"
     inkscape:snap-global="true"
     units="px"
     inkscape:snap-page="false"
     inkscape:snap-grids="true"
     id="base"
     pagecolor="#ffffff"
     bordercolor="#666666"
     borderopacity="1.0"
     inkscape:pageopacity="1"
     inkscape:pageshadow="2"
     inkscape:zoom="1"
     inkscape:cx="509"
     inkscape:cy="206"
     inkscape:document-units="px"
     inkscape:current-layer="layer1"
     inkscape:document-rotation="0"
     showgrid="true"
     showborder="false"
     inkscape:lockguides="false"
     inkscape:showpageshadow="2"
     inkscape:pagecheckerboard="0"
     inkscape:deskcolor="#d1d1d1"><inkscape:grid
       units="px"
       type="xygrid"
       id="grid1829"
       enabled="false"
       visible="true"
       empcolor="#454545"
       empopacity="0.25098039"
       color="#919191"
       opacity="0.1254902"
       empspacing="1"
       spacingx="2.6458333"
       spacingy="2.6458333"
       dotted="false"
       originx="0"
       originy="0" /><inkscape:grid
       enabled="false"
       units="px"
       gridanglez="30"
       gridanglex="30"
       spacingy="2.6458333"
       id="grid831"
       type="axonomgrid"
       originx="0"
       originy="0"
       visible="true" /><sodipodi:guide
       id="guide839"
       orientation="0,793.70081"
       position="0,296.99999"
       inkscape:locked="false" /><sodipodi:guide
       id="guide845"
       orientation="-1122.5197,0"
       position="0,0"
       inkscape:locked="false" /></sodipodi:namedview><metadata
     id="metadata1263"><rdf:RDF><cc:Work
         rdf:about=""><dc:format>image/svg+xml</dc:format><dc:type
           rdf:resource="http://purl.org/dc/dcmitype/StillImage" /></cc:Work></rdf:RDF></metadata><g
     style="opacity:1"
     inkscape:label="Layer 1"
     inkscape:groupmode="layer"
     id="layer1"><g
       id="g4"
       inkscape:export-filename="g4.png"
       inkscape:export-xdpi="90"
       inkscape:export-ydpi="90"><g
         id="g1"
         inkscape:export-filename="..\..\..\..\..\..\Desktop\g1.png"
         inkscape:export-xdpi="90"
         inkscape:export-ydpi="90"><text
           xml:space="preserve"
           style="font-style:normal;font-variant:normal;font-weight:normal;font-stretch:normal;font-size:5.52629px;line-height:1.25;font-family:'Kozuka Mincho Pr6N';-inkscape-font-specification:'Kozuka Mincho Pr6N';letter-spacing:0px;word-spacing:0px;fill:#666666;fill-opacity:1;stroke-width:0.118421"
           x="101.11552"
           y="64.853592"
           id="text1"><tspan
             sodipodi:role="line"
             id="tspan1"
             style="font-style:normal;font-variant:normal;font-weight:normal;font-stretch:normal;font-family:'MV Boli';-inkscape-font-specification:'MV Boli';fill:#666666;fill-opacity:1;stroke-width:0.118421"
             x="101.11552"
             y="64.853592">RIPPLER 2</tspan></text><path
           id="path1"
           style="fill:#666666;fill-opacity:1;stroke-width:0.246578;stroke-linecap:round;stroke-linejoin:bevel;stroke-miterlimit:16.3"
           d="m 124.14126,66.065734 a 8.0223837,1.9316277 0 0 1 0.0656,0.244671 8.0223837,1.9316277 0 0 1 -8.02225,1.931816 8.0223837,1.9316277 0 0 1 -8.02225,-1.931816 8.0223837,1.9316277 0 0 1 0.0667,-0.243736 8.9484253,1.9316277 0 0 0 -0.9927,0.882065 8.9484253,1.9316277 0 0 0 8.94829,1.931815 8.9484253,1.9316277 0 0 0 8.94829,-1.931815 8.9484253,1.9316277 0 0 0 -0.99167,-0.883 z" /><path
           id="path2"
           style="fill:#666666;fill-opacity:1;stroke-width:0.211474;stroke-linecap:round;stroke-linejoin:bevel;stroke-miterlimit:16.3"
           d="m 122.25917,69.079096 a 6.1247349,1.8609825 0 0 1 0.0501,0.235723 6.1247349,1.8609825 0 0 1 -6.12463,1.861164 6.1247349,1.8609825 0 0 1 -6.12463,-1.861164 6.1247349,1.8609825 0 0 1 0.0509,-0.234822 6.8317266,1.8609825 0 0 0 -0.75788,0.849805 6.8317266,1.8609825 0 0 0 6.83162,1.861163 6.8317266,1.8609825 0 0 0 6.83162,-1.861163 6.8317266,1.8609825 0 0 0 -0.75709,-0.850706 z" /><path
           id="path3"
           style="fill:#666666;fill-opacity:1;stroke-width:0.167891;stroke-linecap:round;stroke-linejoin:bevel;stroke-miterlimit:16.3"
           d="m 120.01336,71.791882 a 3.8603781,1.8609825 0 0 1 0.0316,0.235723 3.8603781,1.8609825 0 0 1 -3.86031,1.861164 3.8603781,1.8609825 0 0 1 -3.86031,-1.861164 3.8603781,1.8609825 0 0 1 0.032,-0.234822 4.30599,1.8609825 0 0 0 -0.47768,0.849805 4.30599,1.8609825 0 0 0 4.30592,1.861163 4.30599,1.8609825 0 0 0 4.30592,-1.861163 4.30599,1.8609825 0 0 0 -0.47718,-0.850706 z" /></g></g></g><inkscape:templateinfo><inkscape:name>dd</inkscape:name><inkscape:date>2021-10-06</inkscape:date></inkscape:templateinfo><inkscape:templateinfo><inkscape:name>dd</inkscape:name><inkscape:date>2021-10-06</inkscape:date></inkscape:templateinfo><inkscape:templateinfo><inkscape:name>df</inkscape:name><inkscape:date>2021-10-27</inkscape:date></inkscape:templateinfo></svg>
